<mxfile host="app.diagrams.net" modified="2023-10-24T18:21:59.038Z" agent="Mozilla/5.0 (Macintosh; Intel Mac OS X 10_15_7) AppleWebKit/537.36 (KHTML, like Gecko) Chrome/118.0.0.0 Safari/537.36" etag="n5ZRGsIKzp8bqT8WQRMu" version="22.0.6" type="github">
  <diagram name="Page-1" id="agHHB9HiyMkTrIxRzOQD">
    <mxGraphModel dx="1242" dy="781" grid="1" gridSize="10" guides="1" tooltips="1" connect="1" arrows="1" fold="1" page="1" pageScale="1" pageWidth="850" pageHeight="1100" math="0" shadow="0">
      <root>
        <mxCell id="0" />
        <mxCell id="1" parent="0" />
        <mxCell id="GxcQBWYs64-VDPneHibD-1" value="ГИ" style="rounded=0;whiteSpace=wrap;html=1;" vertex="1" parent="1">
          <mxGeometry x="240" y="280" width="120" height="60" as="geometry" />
        </mxCell>
        <mxCell id="GxcQBWYs64-VDPneHibD-8" style="edgeStyle=orthogonalEdgeStyle;rounded=0;orthogonalLoop=1;jettySize=auto;html=1;exitX=0.5;exitY=0;exitDx=0;exitDy=0;" edge="1" parent="1" source="GxcQBWYs64-VDPneHibD-2" target="GxcQBWYs64-VDPneHibD-1">
          <mxGeometry relative="1" as="geometry" />
        </mxCell>
        <mxCell id="GxcQBWYs64-VDPneHibD-9" value="Старт процесса генерации" style="edgeLabel;html=1;align=center;verticalAlign=middle;resizable=0;points=[];" vertex="1" connectable="0" parent="GxcQBWYs64-VDPneHibD-8">
          <mxGeometry x="0.25" y="-1" relative="1" as="geometry">
            <mxPoint as="offset" />
          </mxGeometry>
        </mxCell>
        <mxCell id="GxcQBWYs64-VDPneHibD-2" value="YAML" style="rounded=0;whiteSpace=wrap;html=1;" vertex="1" parent="1">
          <mxGeometry x="240" y="460" width="120" height="60" as="geometry" />
        </mxCell>
        <mxCell id="GxcQBWYs64-VDPneHibD-4" style="edgeStyle=orthogonalEdgeStyle;rounded=0;orthogonalLoop=1;jettySize=auto;html=1;exitX=1;exitY=0.5;exitDx=0;exitDy=0;entryX=0;entryY=0.5;entryDx=0;entryDy=0;" edge="1" parent="1" source="GxcQBWYs64-VDPneHibD-3" target="GxcQBWYs64-VDPneHibD-2">
          <mxGeometry relative="1" as="geometry" />
        </mxCell>
        <mxCell id="GxcQBWYs64-VDPneHibD-6" value="Описание нового JSI" style="edgeLabel;html=1;align=center;verticalAlign=middle;resizable=0;points=[];" vertex="1" connectable="0" parent="GxcQBWYs64-VDPneHibD-4">
          <mxGeometry x="-0.3647" y="1" relative="1" as="geometry">
            <mxPoint x="26" y="1" as="offset" />
          </mxGeometry>
        </mxCell>
        <mxCell id="GxcQBWYs64-VDPneHibD-3" value="" style="ellipse;whiteSpace=wrap;html=1;aspect=fixed;" vertex="1" parent="1">
          <mxGeometry x="10" y="460" width="60" height="60" as="geometry" />
        </mxCell>
        <mxCell id="GxcQBWYs64-VDPneHibD-11" value="" style="rounded=0;whiteSpace=wrap;html=1;" vertex="1" parent="1">
          <mxGeometry x="500" y="200" width="290" height="390" as="geometry" />
        </mxCell>
        <mxCell id="GxcQBWYs64-VDPneHibD-12" style="edgeStyle=orthogonalEdgeStyle;rounded=0;orthogonalLoop=1;jettySize=auto;html=1;exitX=1;exitY=0.5;exitDx=0;exitDy=0;entryX=-0.007;entryY=0.282;entryDx=0;entryDy=0;entryPerimeter=0;" edge="1" parent="1" source="GxcQBWYs64-VDPneHibD-1" target="GxcQBWYs64-VDPneHibD-11">
          <mxGeometry relative="1" as="geometry" />
        </mxCell>
        <mxCell id="GxcQBWYs64-VDPneHibD-13" value="Text" style="edgeLabel;html=1;align=center;verticalAlign=middle;resizable=0;points=[];" vertex="1" connectable="0" parent="GxcQBWYs64-VDPneHibD-12">
          <mxGeometry x="-0.2752" y="-3" relative="1" as="geometry">
            <mxPoint as="offset" />
          </mxGeometry>
        </mxCell>
      </root>
    </mxGraphModel>
  </diagram>
</mxfile>
